# xmcd
# 
# Track frame offsets:
#     150
#     13110
#     26525
#     40512
#     55477
#     80585
#     103527
#     124675
#     142737
#     163605
#     185082
#     201605
#     216542
#     237522
#     250807
#     271902
# 
# Disc length: 3769
# 
# Revision: 5
# Processed by: cddbd v1.5.2PL0 Copyright (c) Steve Scherf et al.
# Submitted via: fre:ac v1.0.31
# 
DISCID=e70eb710
DTITLE=Robert Johnson Tribute - Hellhound On My Trail- Songs Of Robert Johnson
DYEAR=2000
DGENRE=Blues
TTITLE0=Crossroads (The Crossroad Blues)
TTITLE1=Traveling Riverside Blues
TTITLE2=If I Had Possession Over Judgment Day
TTITLE3=I'm A Steady Rollin' Man
TTITLE4=Me And The Devil Blues
TTITLE5=Walkin' Blues
TTITLE6=When You Got A Good Friend
TTITLE7=Kindhearted Woman Blues
TTITLE8=Dust My Broom
TTITLE9=Come On In My Kitchen
TTITLE10=Stones In My Passway
TTITLE11=Walking Blues
TTITLE12=Hellhound On My Trail
TTITLE13=Stop Breakin' Down Blues
TTITLE14=Sweet Home Chicago
TTITLE15=Milkcow's Calf Blues
EXTD=
EXTT0=
EXTT1=
EXTT2=
EXTT3=
EXTT4=
EXTT5=
EXTT6=
EXTT7=
EXTT8=
EXTT9=
EXTT10=
EXTT11=
EXTT12=
EXTT13=
EXTT14=
EXTT15=
PLAYORDER=
